<svg width="32" height="32" viewBox="0 0 32 32" fill="none" xmlns="http://www.w3.org/2000/svg">
<path d="M29 29C29 29.5523 28.5523 30 28 30H20.2778C19.7255 30 19.2778 29.5523 19.2778 29V21.0526C19.2778 20.5003 18.8301 20.0526 18.2778 20.0526H14.7222C14.1699 20.0526 13.7222 20.5003 13.7222 21.0526V29C13.7222 29.5523 13.2745 30 12.7222 30H5C4.44772 30 4 29.5523 4 29V9.89769C4 9.54272 4.18817 9.21436 4.49443 9.0349L15.9962 2.29524C16.3075 2.11283 16.6929 2.11225 17.0047 2.29373L28.503 8.98543C28.8107 9.16451 29 9.49369 29 9.84972V29Z" fill="white"/>
</svg>
